<svg width="158" height="47" viewBox="0 0 158 47" fill="none" xmlns="http://www.w3.org/2000/svg">
<path d="M109.348 19.1847C110.81 19.4841 111.903 20.9321 111.559 22.5264C111.27 23.8561 110.027 24.7646 108.666 24.7646H94.6797V30.4002H108.784C108.826 30.4002 108.864 30.4002 108.903 30.3967C111.847 30.2053 114.169 27.7582 114.169 24.7646C114.169 21.9277 112.077 19.5781 109.348 19.1847ZM108.527 19.1221C108.478 19.1221 108.429 19.1221 108.384 19.1256H108.673C108.624 19.1221 108.575 19.1221 108.527 19.1221Z" fill="white"/>
<path d="M66.9823 15.0702V36.0392H61.3154V21.5378L65.9624 14.7604C65.9624 14.7604 65.9659 14.7535 65.9694 14.75C65.9903 14.7222 66.0112 14.6943 66.039 14.6699C66.133 14.5794 66.2618 14.5203 66.4045 14.5133H66.4498C66.6273 14.5203 66.7839 14.6143 66.8814 14.75C66.8849 14.7535 66.8884 14.757 66.8884 14.7604C66.9475 14.851 66.9823 14.9554 66.9823 15.0702Z" fill="white"/>
<path d="M58.9525 23.8457H52.4641C52.0116 23.8457 51.6043 23.6438 51.3328 23.3235L50.1006 21.7502V15.0738C50.1006 14.764 50.3512 14.5168 50.6575 14.5168C50.8455 14.5168 51.0126 14.6108 51.1135 14.7535C51.117 14.757 51.1205 14.7605 51.1205 14.764L55.7118 20.6223L57.7272 23.1947C57.7586 23.24 57.7899 23.2818 57.8247 23.3235C58.0962 23.6438 58.5035 23.8457 58.956 23.8457H58.9525Z" fill="white"/>
<path d="M66.4048 14.5133C66.2621 14.5203 66.1333 14.5794 66.0393 14.6699C66.0115 14.6943 65.9906 14.7222 65.9697 14.75C65.9662 14.7535 65.9627 14.757 65.9627 14.7604L61.3157 21.5378L60.181 23.1947C60.1496 23.2399 60.1183 23.2817 60.08 23.3235C59.812 23.6437 59.4047 23.8456 58.9522 23.8456C58.4997 23.8456 58.0924 23.6437 57.8209 23.3235C57.7861 23.2817 57.7548 23.2399 57.7234 23.1947L55.708 20.6223L60.2958 14.7639C60.2958 14.7639 60.2993 14.757 60.3028 14.7535C60.4037 14.6108 60.5708 14.5168 60.7588 14.5168H66.1298L66.4048 14.5133Z" fill="white"/>
<path d="M32.7687 22.8257C32.6922 23.2329 32.6051 23.6367 32.4972 24.0336C31.5052 27.7894 29.1973 31.0162 26.0924 33.1814C24.606 34.2187 22.9491 35.0054 21.2017 35.4962C20.2967 35.7503 19.3673 35.9243 18.4309 36.0148C17.4214 36.1158 16.3841 36.0357 15.3642 36.067C13.502 36.1192 11.7302 36.3281 9.96189 36.9407C8.40941 37.4803 6.94046 38.26 5.61772 39.2416C4.04783 40.4077 2.80168 41.8314 1.68779 43.4256C1.06471 44.3759 0.542582 45.3924 0.131836 46.468C0.720108 43.4779 1.73653 40.6374 3.11149 38.0198C3.12193 37.9954 3.13584 37.9711 3.14629 37.9467C3.40039 37.4629 3.66842 36.9825 3.94689 36.5126C3.95733 36.4917 3.97127 36.4743 3.98171 36.4569C4.84497 35.1063 5.92404 33.9089 7.16672 32.9098C8.56604 31.782 10.1673 30.9083 11.8799 30.3514C13.7978 29.7283 15.7924 29.6587 17.7869 29.4916C20.6065 29.2549 23.4747 28.423 26.0993 27.3891C26.1098 27.3891 26.1202 27.3822 26.1272 27.3752C26.6772 27.1768 27.2202 26.9471 27.7388 26.6895C29.6603 25.7462 31.3694 24.4234 32.7618 22.8257H32.7687Z" fill="white"/>
<path d="M47.8126 1.19189C47.8126 1.19189 47.8091 1.21626 47.8056 1.23018C47.7046 1.76624 47.5863 2.3023 47.4506 2.82444C46.1034 7.92047 42.9706 12.2925 38.7657 15.2269C36.5901 16.7411 34.1431 17.8654 31.5672 18.5094C28.6537 19.2404 25.6392 19.035 22.6631 19.2508C15.7639 19.7451 9.48088 23.2747 5.68322 29.1087C4.84084 30.4036 4.12726 31.7925 3.57031 33.2579C4.3918 29.0809 5.81899 25.1266 7.76133 21.4821C8.04676 20.9495 8.34263 20.4239 8.64895 19.9052C9.84638 17.9803 11.3571 16.2677 13.115 14.8509C14.9424 13.382 17.017 12.2333 19.2344 11.478C22.4229 10.3919 25.775 10.5137 29.061 10.0055C32.3852 9.49036 35.6503 8.60621 38.7796 7.37397C38.7901 7.36701 38.804 7.36005 38.8179 7.35657C39.6185 7.06765 40.4017 6.73349 41.1571 6.35407C43.7016 5.07658 45.9642 3.31524 47.8126 1.19189Z" fill="white"/>
<path d="M47.8126 1.19189C47.8126 1.19189 47.8091 1.21626 47.8056 1.23018C46.086 4.82943 43.719 7.92743 40.896 10.291C38.5882 12.2229 35.9949 13.6535 33.2659 14.475C30.1748 15.4079 26.9759 15.1433 23.8187 15.4148C16.5019 16.0449 9.83941 20.5422 5.81201 27.9705C4.91742 29.6239 4.15858 31.3922 3.57031 33.2579C4.3918 29.0809 5.81899 25.1266 7.76133 21.4821C8.04676 20.9495 8.34263 20.4239 8.64895 19.9052C9.84638 17.9803 11.3571 16.2677 13.115 14.8509C14.9424 13.382 17.017 12.2333 19.2344 11.478C22.4229 10.3919 25.775 10.5137 29.061 10.0055C32.3852 9.49036 35.6503 8.60621 38.7796 7.37397C38.7901 7.36701 38.804 7.36005 38.8179 7.35657C39.6185 7.06765 40.4017 6.73349 41.1571 6.35407C43.7016 5.07658 45.9642 3.31524 47.8126 1.19189Z" fill="white"/>
<path d="M32.7686 22.8256C32.7686 22.8256 32.7686 22.843 32.7652 22.8535C31.4981 25.5094 29.7507 27.7929 27.6691 29.5368C25.967 30.9605 24.0559 32.0152 22.0405 32.6244C19.7605 33.3136 17.4005 33.1186 15.0717 33.3171C9.67634 33.78 4.76131 37.0973 1.7921 42.5762C1.13073 43.7946 0.573784 45.0999 0.138672 46.4749C0.744348 43.3943 1.79558 40.4773 3.22971 37.79C3.43857 37.3967 3.65786 37.0103 3.88412 36.6274C4.76827 35.2072 5.88217 33.9436 7.17706 32.8993C8.52417 31.8168 10.0558 30.9675 11.6918 30.4105C14.0449 29.6099 16.5163 29.7004 18.939 29.3245C21.3896 28.945 23.7984 28.2906 26.1062 27.3821C26.1132 27.3786 26.1236 27.3717 26.134 27.3682C26.7258 27.1559 27.3036 26.9087 27.8606 26.6302C29.7368 25.6869 31.4076 24.3885 32.7686 22.8221V22.8256Z" fill="white"/>
<path d="M86.3186 27.4761H86.3255C87.9964 26.8844 89.1903 25.2901 89.1903 23.4209C89.1903 21.0434 87.2619 19.115 84.8844 19.115C84.7939 19.115 84.7 19.1185 84.6095 19.1254H84.9819C85.5945 19.1254 86.1724 19.4735 86.4021 20.0409C86.785 20.9947 85.9983 21.931 85.0829 21.931H75.2284C72.0991 21.931 69.5615 24.4686 69.5615 27.5979V36.0391H75.2284V27.5666H79.5065L85.41 36.0391H92.257L86.3186 27.4761Z" fill="white"/>
<path d="M91.8915 18.7183C92.981 22.7839 90.2589 26.7974 86.3255 27.4762C87.9964 26.8844 89.1903 25.2902 89.1903 23.421C89.1903 21.0435 87.2619 19.1151 84.8844 19.1151C84.7939 19.1151 84.7 19.1186 84.6095 19.1255H75.2284C72.0991 19.1255 69.5615 16.5879 69.5615 13.4586H84.8601C88.1112 13.4586 91.0526 15.5785 91.895 18.7183H91.8915Z" fill="white"/>
<path d="M117.257 21.9763C117.232 26.5606 113.48 30.3374 108.903 30.3966C111.847 30.2051 114.169 27.7581 114.169 24.7645C114.169 21.9276 112.077 19.578 109.348 19.1846C109.338 19.1811 109.331 19.1777 109.32 19.1777C109.146 19.1428 108.965 19.1254 108.784 19.1254H108.673C108.624 19.122 108.575 19.122 108.527 19.122C108.478 19.122 108.429 19.122 108.384 19.1254H94.6797V13.4899H108.617C113.285 13.4899 117.281 17.3084 117.257 21.9763Z" fill="white"/>
<path d="M75.2284 27.5667V36.0392H69.5615V33.2336C69.5615 30.1042 72.0991 27.5667 75.2284 27.5667Z" fill="white"/>
<path d="M50.6535 14.5168C50.3472 14.5168 50.0966 14.764 50.0966 15.0738V36.0392H44.4297V15.0633C44.4297 15.032 44.4332 15.0042 44.4367 14.9728C44.4367 14.9694 44.4367 14.9659 44.4401 14.9624C44.461 14.858 44.5132 14.757 44.5933 14.677C44.6942 14.576 44.8195 14.5238 44.9518 14.5168H50.6535Z" fill="white"/>
<path d="M100.315 19.1255H94.6797V36.0392H100.315V19.1255Z" fill="white"/>
<path d="M36.5769 36.0393C36.4898 36.0323 36.4063 36.0219 36.3262 36.0079C35.2994 35.8443 34.4257 35.2178 33.9349 34.3441C33.8304 34.1631 33.7434 33.9681 33.6773 33.7662C33.5903 33.5156 33.5346 33.2476 33.5137 32.9761C35.2019 32.983 36.5699 34.3545 36.5803 36.0393H36.5769Z" fill="white"/>
<path d="M35.4563 32.332C35.4563 32.5687 35.4772 32.802 35.5259 33.0317C35.2927 32.8751 35.0421 32.7463 34.7775 32.6453C34.7184 32.2763 34.7218 31.9004 34.7949 31.528C35.0386 31.5906 35.2753 31.6811 35.4946 31.8029C35.4668 31.977 35.4563 32.151 35.4563 32.332Z" fill="white"/>
<path d="M37.2941 33.881C37.2349 33.982 37.1653 34.0829 37.0957 34.1804C37.0261 34.2744 36.9495 34.3649 36.8659 34.4519C36.3229 33.8845 36.0166 33.1257 36.0166 32.332C36.0166 31.5384 36.3229 30.7795 36.8659 30.2122C37.409 30.783 37.7153 31.5419 37.7153 32.332C37.7153 32.882 37.5691 33.4146 37.2976 33.881H37.2941Z" fill="white"/>
<path d="M38.2722 32.3321C38.2722 32.1546 38.2583 31.977 38.2339 31.803C38.4532 31.6847 38.6899 31.5942 38.9336 31.5315C39.0067 31.9005 39.0101 32.2764 38.951 32.6419C38.6864 32.7394 38.4358 32.8682 38.2061 33.0213C38.2513 32.7951 38.2722 32.5653 38.2722 32.3321Z" fill="white"/>
<path d="M37.0503 29.6136L36.8658 29.45L36.6813 29.6136C36.1835 30.0556 35.825 30.6195 35.6266 31.2426C35.3168 31.0929 34.9826 30.985 34.6345 30.9293L34.3909 30.8876L34.3212 31.1243C34.1924 31.5698 34.1507 32.0293 34.1925 32.4783C33.9732 32.4366 33.7434 32.4157 33.5137 32.4122C33.6564 30.6892 35.0975 29.3351 36.8588 29.3351C38.6201 29.3351 40.0613 30.6892 40.204 32.4122C39.9777 32.4122 39.7549 32.4331 39.5426 32.4749C39.5844 32.0258 39.5426 31.5663 39.4138 31.1208L39.3442 30.8841L39.1005 30.9259C38.7524 30.9815 38.4183 31.0895 38.1085 31.2391C37.9135 30.6161 37.5515 30.0521 37.0537 29.6101L37.0503 29.6136Z" fill="white"/>
<path d="M40.2009 32.9727C40.18 33.2476 40.1243 33.5122 40.0373 33.7628C39.9711 33.9647 39.8841 34.1596 39.7797 34.3441C39.2889 35.2109 38.4256 35.8374 37.4092 36.0045C37.3187 36.0184 37.2282 36.0324 37.1377 36.0393C37.1377 35.4754 37.2943 34.9463 37.5658 34.4938C37.6215 34.3963 37.6842 34.3024 37.7538 34.2084C38.3107 33.4635 39.2019 32.9796 40.2009 32.9761V32.9727Z" fill="white"/>
<path d="M37.0957 34.1805C37.1688 34.0865 37.2349 33.9855 37.2941 33.8811C37.221 33.9751 37.1549 34.076 37.0957 34.1805Z" fill="white"/>
<path d="M37.5615 34.4903C37.6277 34.3998 37.6903 34.3058 37.7495 34.2048C37.6799 34.2953 37.6172 34.3893 37.5615 34.4903Z" fill="white"/>
<g filter="url(#filter0_d_23_7588)">
<rect x="119" y="1.19189" width="36" height="20" rx="2" fill="url(#paint0_radial_23_7588)" shape-rendering="crispEdges"/>
<path d="M124.092 16.1919V7.79189H127.74C128.3 7.79189 128.772 7.87589 129.156 8.04389C129.548 8.20389 129.844 8.43989 130.044 8.75189C130.244 9.06389 130.344 9.43589 130.344 9.86789C130.344 10.3479 130.224 10.7479 129.984 11.0679C129.744 11.3879 129.4 11.6079 128.952 11.7279L128.94 11.4879C129.308 11.5759 129.632 11.7199 129.912 11.9199C130.192 12.1199 130.408 12.3679 130.56 12.6639C130.712 12.9599 130.788 13.2959 130.788 13.6719C130.788 14.0879 130.72 14.4559 130.584 14.7759C130.448 15.0879 130.248 15.3479 129.984 15.5559C129.72 15.7639 129.408 15.9239 129.048 16.0359C128.696 16.1399 128.3 16.1919 127.86 16.1919H124.092ZM125.82 14.6319H127.788C128.044 14.6319 128.26 14.5959 128.436 14.5239C128.62 14.4439 128.76 14.3239 128.856 14.1639C128.952 14.0039 129 13.8159 129 13.5999C129 13.3919 128.948 13.2159 128.844 13.0719C128.74 12.9279 128.592 12.8199 128.4 12.7479C128.216 12.6679 127.992 12.6279 127.728 12.6279H125.82V14.6319ZM125.82 11.1999H127.524C127.74 11.1999 127.928 11.1599 128.088 11.0799C128.248 10.9999 128.368 10.8919 128.448 10.7559C128.536 10.6199 128.58 10.4599 128.58 10.2759C128.58 9.97989 128.484 9.75189 128.292 9.59189C128.1 9.43189 127.812 9.35189 127.428 9.35189H125.82V11.1999ZM135.184 16.3119C134.496 16.3119 133.896 16.1719 133.384 15.8919C132.872 15.6119 132.472 15.2279 132.184 14.7399C131.896 14.2519 131.752 13.6919 131.752 13.0599C131.752 12.5719 131.832 12.1239 131.992 11.7159C132.152 11.3079 132.376 10.9559 132.664 10.6599C132.952 10.3559 133.292 10.1239 133.684 9.96389C134.084 9.79589 134.516 9.71189 134.98 9.71189C135.412 9.71189 135.812 9.79189 136.18 9.95189C136.548 10.1039 136.864 10.3239 137.128 10.6119C137.4 10.8919 137.608 11.2239 137.752 11.6079C137.896 11.9919 137.96 12.4119 137.944 12.8679L137.932 13.3959H132.832L132.556 12.3519H136.528L136.336 12.5679V12.3039C136.32 12.0879 136.248 11.8919 136.12 11.7159C136 11.5399 135.844 11.4039 135.652 11.3079C135.46 11.2119 135.244 11.1639 135.004 11.1639C134.652 11.1639 134.352 11.2319 134.104 11.3679C133.864 11.5039 133.68 11.7039 133.552 11.9679C133.424 12.2319 133.36 12.5519 133.36 12.9279C133.36 13.3119 133.44 13.6439 133.6 13.9239C133.768 14.2039 134 14.4239 134.296 14.5839C134.6 14.7359 134.956 14.8119 135.364 14.8119C135.644 14.8119 135.9 14.7679 136.132 14.6799C136.364 14.5919 136.612 14.4399 136.876 14.2239L137.692 15.3639C137.46 15.5719 137.204 15.7479 136.924 15.8919C136.644 16.0279 136.356 16.1319 136.06 16.2039C135.764 16.2759 135.472 16.3119 135.184 16.3119ZM139.816 16.1919V8.23589H141.52V16.1919H139.816ZM138.628 11.3679V9.84389H142.816V11.3679H138.628ZM146.244 16.3119C145.716 16.3119 145.24 16.1679 144.816 15.8799C144.392 15.5919 144.056 15.1999 143.808 14.7039C143.56 14.2079 143.436 13.6399 143.436 12.9999C143.436 12.3599 143.56 11.7959 143.808 11.3079C144.064 10.8119 144.408 10.4239 144.84 10.1439C145.272 9.85589 145.764 9.71189 146.316 9.71189C146.628 9.71189 146.912 9.75989 147.168 9.85589C147.432 9.94389 147.66 10.0679 147.852 10.2279C148.052 10.3879 148.22 10.5719 148.356 10.7799C148.492 10.9879 148.588 11.2119 148.644 11.4519L148.284 11.3919V9.84389H149.976V16.1919H148.26V14.6679L148.644 14.6319C148.58 14.8559 148.476 15.0679 148.332 15.2679C148.188 15.4679 148.008 15.6479 147.792 15.8079C147.584 15.9599 147.348 16.0839 147.084 16.1799C146.82 16.2679 146.54 16.3119 146.244 16.3119ZM146.712 14.8359C147.032 14.8359 147.312 14.7599 147.552 14.6079C147.792 14.4559 147.976 14.2439 148.104 13.9719C148.24 13.6919 148.308 13.3679 148.308 12.9999C148.308 12.6399 148.24 12.3239 148.104 12.0519C147.976 11.7799 147.792 11.5679 147.552 11.4159C147.312 11.2559 147.032 11.1759 146.712 11.1759C146.4 11.1759 146.124 11.2559 145.884 11.4159C145.652 11.5679 145.468 11.7799 145.332 12.0519C145.196 12.3239 145.128 12.6399 145.128 12.9999C145.128 13.3679 145.196 13.6919 145.332 13.9719C145.468 14.2439 145.652 14.4559 145.884 14.6079C146.124 14.7599 146.4 14.8359 146.712 14.8359Z" fill="white"/>
</g>
<defs>
<filter id="filter0_d_23_7588" x="118" y="0.191895" width="40" height="24" filterUnits="userSpaceOnUse" color-interpolation-filters="sRGB">
<feFlood flood-opacity="0" result="BackgroundImageFix"/>
<feColorMatrix in="SourceAlpha" type="matrix" values="0 0 0 0 0 0 0 0 0 0 0 0 0 0 0 0 0 0 127 0" result="hardAlpha"/>
<feOffset dx="1" dy="1"/>
<feGaussianBlur stdDeviation="1"/>
<feComposite in2="hardAlpha" operator="out"/>
<feColorMatrix type="matrix" values="0 0 0 0 0 0 0 0 0 0 0 0 0 0 0 0 0 0 0.25 0"/>
<feBlend mode="normal" in2="BackgroundImageFix" result="effect1_dropShadow_23_7588"/>
<feBlend mode="normal" in="SourceGraphic" in2="effect1_dropShadow_23_7588" result="shape"/>
</filter>
<radialGradient id="paint0_radial_23_7588" cx="0" cy="0" r="1" gradientUnits="userSpaceOnUse" gradientTransform="translate(152.75 1.90618) rotate(131.079) scale(25.1106 15.7602)">
<stop stop-color="#1FC583"/>
<stop offset="1" stop-color="#1F9285"/>
</radialGradient>
</defs>
</svg>
